<svg height="140" viewBox="0 0 740 1009" fill="none" xmlns="http://www.w3.org/2000/svg">
<path d="M239.512 973H231.556V864.37H239.512V910.729C242.878 907.669 246.601 905.17 250.681 903.232C254.761 901.192 259.249 900.172 264.145 900.172C268.123 900.172 271.591 900.784 274.549 902.008C277.507 903.13 279.904 904.762 281.74 906.904C283.678 908.944 285.106 911.392 286.024 914.248C287.044 917.002 287.554 920.062 287.554 923.428V973H279.598V925.876C279.598 918.838 278.017 913.891 274.855 911.035C271.693 908.077 267.511 906.598 262.309 906.598C258.637 906.598 254.812 907.618 250.834 909.658C246.856 911.596 243.082 914.248 239.512 917.614V973ZM365.195 937.045H313.94V939.187C313.94 948.163 316.337 955.201 321.131 960.301C326.027 965.299 332.657 967.798 341.021 967.798C347.651 967.798 353.873 966.676 359.687 964.432L361.523 970.552C358.871 971.674 355.658 972.541 351.884 973.153C348.212 973.867 344.438 974.224 340.562 974.224C335.768 974.224 331.229 973.51 326.945 972.082C322.763 970.654 319.091 968.461 315.929 965.503C312.767 962.443 310.268 958.618 308.432 954.028C306.596 949.336 305.678 943.726 305.678 937.198C305.678 931.588 306.443 926.488 307.973 921.898C309.503 917.308 311.696 913.432 314.552 910.27C317.408 907.006 320.774 904.507 324.65 902.773C328.526 901.039 332.861 900.172 337.655 900.172C341.735 900.172 345.458 900.937 348.824 902.467C352.292 903.895 355.199 905.986 357.545 908.74C359.993 911.494 361.88 914.809 363.206 918.685C364.532 922.561 365.195 926.845 365.195 931.537V937.045ZM356.933 930.619C356.933 927.661 356.576 924.754 355.862 921.898C355.148 918.94 353.975 916.339 352.343 914.095C350.813 911.851 348.773 910.066 346.223 908.74C343.775 907.312 340.766 906.598 337.196 906.598C330.974 906.598 325.772 908.689 321.59 912.871C317.51 917.053 315.062 922.969 314.246 930.619H356.933ZM381.514 907.363C386.308 904.813 390.694 902.977 394.672 901.855C398.752 900.733 403.087 900.172 407.677 900.172C410.941 900.172 414.001 900.631 416.857 901.549C419.815 902.467 422.365 903.946 424.507 905.986C426.751 908.026 428.485 910.729 429.709 914.095C431.035 917.359 431.698 921.388 431.698 926.182V973H426.19L424.507 963.514H424.201C421.243 967.084 417.775 969.787 413.797 971.623C409.819 973.357 405.382 974.224 400.486 974.224C397.12 974.224 394.009 973.765 391.153 972.847C388.297 971.827 385.798 970.399 383.656 968.563C381.616 966.727 379.984 964.534 378.76 961.984C377.638 959.332 377.077 956.425 377.077 953.263C377.077 949.489 377.842 946.174 379.372 943.318C380.902 940.462 383.044 938.116 385.798 936.28C388.552 934.342 391.816 932.914 395.59 931.996C399.466 931.078 403.75 930.619 408.442 930.619H423.742V925.876C423.742 918.94 422.212 913.993 419.152 911.035C416.092 908.077 412.114 906.598 407.218 906.598C404.26 906.598 400.843 907.057 396.967 907.975C393.091 908.893 388.96 910.576 384.574 913.024L381.514 907.363ZM423.742 936.892L411.043 937.045C406.453 937.147 402.526 937.657 399.262 938.575C395.998 939.391 393.295 940.513 391.153 941.941C389.113 943.267 387.634 944.899 386.716 946.837C385.798 948.673 385.339 950.662 385.339 952.804C385.339 955.456 385.798 957.751 386.716 959.689C387.634 961.525 388.858 963.055 390.388 964.279C391.918 965.503 393.703 966.421 395.743 967.033C397.885 967.543 400.129 967.798 402.475 967.798C404.311 967.798 406.198 967.594 408.136 967.186C410.074 966.676 411.961 965.962 413.797 965.044C415.735 964.024 417.571 962.8 419.305 961.372C421.039 959.842 422.518 958.006 423.742 955.864V936.892ZM479.125 974.224C475.759 974.224 472.597 973.816 469.639 973C466.681 972.082 464.131 970.858 461.989 969.328V1008.19H454.033V900.172H460.612L461.836 909.352C464.182 907.006 467.14 904.915 470.71 903.079C474.28 901.141 478.615 900.172 483.715 900.172C488.101 900.172 492.13 900.937 495.802 902.467C499.576 903.997 502.84 906.241 505.594 909.199C508.348 912.157 510.49 915.829 512.02 920.215C513.55 924.601 514.315 929.599 514.315 935.209C514.315 941.941 513.295 947.755 511.255 952.651C509.317 957.547 506.665 961.627 503.299 964.891C500.035 968.053 496.261 970.399 491.977 971.929C487.795 973.459 483.511 974.224 479.125 974.224ZM482.032 906.598C479.686 906.598 477.442 906.955 475.3 907.669C473.26 908.281 471.373 909.097 469.639 910.117C467.905 911.137 466.375 912.259 465.049 913.483C463.723 914.707 462.703 915.88 461.989 917.002V962.749C464.233 964.483 466.732 965.758 469.486 966.574C472.342 967.39 475.198 967.798 478.054 967.798C481.624 967.798 485.092 967.237 488.458 966.115C491.824 964.993 494.782 963.157 497.332 960.607C499.984 957.955 502.075 954.589 503.605 950.509C505.237 946.327 506.053 941.227 506.053 935.209C506.053 926.131 504.064 919.093 500.086 914.095C496.21 909.097 490.192 906.598 482.032 906.598Z" fill="#777"/>
<path d="M0 370C0 70 173 0 370 0C567 0 740 70 740 370C740 670 567 740 370 740C173 740 0 670 0 370Z" fill="#FAFA00"/>
<path d="M413.6 545.2C412.2 538.2 411.267 532.367 410.8 527.7C410.8 522.567 410.567 516.733 410.1 510.2C394.233 526.067 377.2 537.733 359 545.2C341.267 552.667 322.833 556.4 303.7 556.4C271.967 556.4 247.467 547.767 230.2 530.5C213.4 513.233 205 492 205 466.8C205 444.4 211.067 425.5 223.2 410.1C235.333 394.233 251.2 381.4 270.8 371.6C290.4 361.333 312.1 353.633 335.9 348.5C359.7 342.9 383.267 339.867 406.6 339.4V300.9C406.6 287.367 404.967 275 401.7 263.8C398.9 252.133 393.533 243.033 385.6 236.5C377.667 229.5 366 226 350.6 226C340.333 226.467 329.833 228.8 319.1 233C308.833 236.733 300.667 242.8 294.6 251.2C298.333 255.4 300.667 260.067 301.6 265.2C302.533 269.867 303 274.067 303 277.8C303 286.2 299.733 295.067 293.2 304.4C286.667 313.267 276.167 317.467 261.7 317C249.1 316.533 239.3 312.1 232.3 303.7C225.767 295.3 222.5 285.267 222.5 273.6C222.5 255.867 228.8 240.467 241.4 227.4C254.467 213.867 271.967 203.367 293.9 195.9C315.833 187.967 340.333 184 367.4 184C407.533 184 438.333 194.5 459.8 215.5C481.267 236.5 491.767 270.1 491.3 316.3C491.3 332.633 491.3 347.567 491.3 361.1C491.3 374.167 491.067 387.467 490.6 401C490.6 414.067 490.6 428.767 490.6 445.1C490.6 452.1 490.367 460.967 489.9 471.7C489.433 481.967 488.733 492.233 487.8 502.5C496.2 501.567 504.6 501.1 513 501.1C521.867 500.633 529.1 500.167 534.7 499.7V545.2H413.6ZM405.9 380.7C391.9 381.633 378.133 383.967 364.6 387.7C351.067 390.967 338.933 395.633 328.2 401.7C317.467 407.767 308.833 415.467 302.3 424.8C296.233 433.667 293.433 443.933 293.9 455.6C294.367 470.067 299.033 480.8 307.9 487.8C316.767 494.333 327.033 497.6 338.7 497.6C352.233 497.6 364.367 494.8 375.1 489.2C386.3 483.6 396.567 476.133 405.9 466.8C405.9 462.133 405.9 457.233 405.9 452.1C405.9 446.967 405.9 441.833 405.9 436.7C405.9 430.167 405.9 422 405.9 412.2C405.9 402.4 405.9 391.9 405.9 380.7Z" fill="white"/>
</svg>
